<svg xmlns="http://www.w3.org/2000/svg" viewBox="0 0 89 65" width="89" height="65">
	<style>
		tspan { white-space:pre }
		.shp0 { fill:  #DB2777}
	</style>
	<g id="Layer">
		<path id="Layer" fill-rule="evenodd" class="shp0" d="M85.32 17.92C84.63 21.28 84.88 24.87 84.62 28.32C84.39 31.5 83.47 34.42 82.54 37.57C81.56 40.91 80.2 43.1 80.03 46.64C79.89 49.59 79.59 52.68 79.6 55.62C79.63 59.84 82.99 58.61 83.3 61.11C83.53 62.99 80.45 64.17 79 63.19C78.15 63.46 78.05 64.85 76.54 64.85C70.79 64.85 70.44 55.36 69.08 50.62C68.59 48.89 67.74 41.93 65.54 41.68C63.56 40.37 59.28 41.71 56.98 41.45C53.69 41.08 51.19 42.25 48.46 43.94C46.18 45.35 42.93 46.61 40.98 48.28C39.12 49.87 40.32 55.82 43.12 55.55C47.16 55.16 43.43 61.22 39.45 58.21C42.58 61.15 36.41 62.74 34.41 61.34C32.07 59.7 33.79 55.18 32.4 53.1C31.88 49.35 31.13 46.54 33.38 43.25C35.14 40.68 34.11 38.36 32.5 35.87C32.02 35.12 31.5 32.18 30.26 33.32C29.61 33.26 27.1 35.69 26.56 36.05C23.5 38.1 19.7 39.83 16.18 40.83C13.17 41.68 9.44 41.57 6.37 41.33C5.24 41.24 -2 39.09 -0.02 37.19C0.76 36.43 5.15 38.03 6.42 38.09C9.2 38.2 11.6 37.92 14.19 36.96C20.04 34.79 23.4 31.76 27.89 27.9C36.86 20.18 45.84 20.43 57.09 19.81C60.65 19.62 66.85 20.59 69.97 18.91C73.82 16.84 71.92 15.87 70.88 12.23C70.1 9.51 69.17 6.84 68.77 4.01C68.25 0.44 69.82 -0.75 72.29 1.85C74.63 4.3 75.04 5.9 78.49 5.56C81.81 5.23 82.19 5.37 84.34 2.78C85.04 1.94 88.04 -1.63 88.89 1.1C89.82 4.71 87.58 14.52 85.32 17.92ZM39.13 57.82C37.74 56.83 37.07 54.12 36.51 52.59C36.6 54.37 37.06 56.14 37.7 57.79C38.18 57.7 38.66 57.72 39.13 57.82ZM76.69 60.1C75.96 55.79 75.1 51.46 74.65 47.12C73.9 50.34 75.67 53.87 75.67 57.11C75.75 58.08 75.92 59.4 76.69 60.1Z" />
	</g>
</svg>
