<svg xmlns="http://www.w3.org/2000/svg" viewBox="0 0 94 81" width="94" height="81">
	<style>
		tspan { white-space:pre }
		.shp0 { fill: #DB2777 }
	</style>
	<path id="Layer" fill-rule="evenodd" class="shp0" d="M30.09 70.41C29.86 70.03 29.57 70.02 29.3 70.04C28.55 70.13 27.8 70.23 27.05 70.33C26.64 70.39 26.24 70.48 25.83 70.5C24.48 70.57 23.14 70.56 21.81 70.8C21 70.94 20.19 71.11 19.38 71.26C19.07 71.32 18.76 71.39 18.46 71.4C16.12 71.41 13.77 71.4 11.43 71.41C10.9 71.41 10.41 71.31 9.94 71.06C9.63 70.91 9.29 70.82 8.96 70.73C8.54 70.61 8.13 70.69 7.8 70.98C7.44 71.28 7.04 71.44 6.6 71.55C6.31 71.63 6.01 71.74 5.74 71.9C5.05 72.31 4.3 72.32 3.54 72.26C3.08 72.23 2.84 72 2.82 71.53C2.8 70.78 2.8 70.02 2.83 69.26C2.86 68.81 3.02 68.39 3.34 68.04C3.51 67.87 3.66 67.68 3.81 67.49C4.27 66.91 4.87 66.63 5.6 66.62C5.91 66.61 6.22 66.59 6.53 66.59C9.26 66.6 11.98 66.6 14.7 66.61C15.54 66.61 16.35 66.54 17.14 66.23C17.58 66.06 18.07 65.98 18.54 65.91C19.03 65.84 19.46 65.68 19.88 65.4C20.84 64.74 21.8 64.07 22.81 63.49C23.37 63.16 23.92 62.81 24.48 62.48C25.55 61.86 26.3 60.93 27.06 60C27.13 59.92 27.17 59.82 27.21 59.73C27.51 59.07 27.82 58.42 28.1 57.76C28.28 57.31 28.48 56.87 28.76 56.48C28.91 56.26 29 55.97 29.02 55.71C29.03 55.49 28.96 55.2 28.81 55.05C28.01 54.19 27.15 53.4 26.04 52.94C25.79 52.84 25.53 52.72 25.29 52.59C24.55 52.18 23.77 52.14 23 52.46C22.21 52.78 21.35 53 20.71 53.63C20.66 53.67 20.61 53.72 20.55 53.75C19.68 54.08 18.83 54.44 17.95 54.74C17.53 54.88 17.11 55 16.74 55.28C16.53 55.45 16.26 55.54 16.02 55.66C15.68 55.83 15.34 55.99 15.01 56.16C14.76 56.28 14.53 56.45 14.28 56.53C13.9 56.63 13.56 56.77 13.27 57.03C13.22 57.08 13.17 57.13 13.1 57.15C12.02 57.47 11.07 58.16 9.92 58.31C9.34 58.39 8.76 58.5 8.19 58.62C7.55 58.76 6.9 58.83 6.24 58.81C5.48 58.79 4.73 58.78 3.97 58.82C3.46 58.85 3.02 58.72 2.61 58.43C1.28 57.46 0.42 56.21 0.57 54.5C0.64 53.69 0.88 52.87 1.19 52.12C1.42 51.57 1.89 51.1 2.28 50.63C2.6 50.23 2.95 49.84 3.33 49.49C4.43 48.46 5.21 47.21 5.96 45.94C6.25 45.45 6.29 44.89 6.29 44.33C6.29 43.06 6.29 41.78 6.29 40.51C6.29 40.2 6.3 39.89 6.31 39.58C6.33 39.05 6.45 38.56 6.72 38.1C7.16 37.36 7.39 36.52 7.93 35.83C8.83 34.7 9.73 33.57 10.83 32.62C11.22 32.29 11.6 31.94 12.02 31.63C12.95 30.94 13.93 30.32 14.93 29.71C15.92 29.11 17.02 28.83 18.06 28.42C19.04 28.03 20.1 28.17 21.12 28.32C21.64 28.4 22.14 28.54 22.64 28.65C23.58 28.86 24.53 29.02 25.5 29.08C26.01 29.11 26.53 29.21 27.02 29.37C27.84 29.64 28.67 29.87 29.54 29.89C30.02 29.91 30.4 30.1 30.69 30.48C31.36 31.35 32.03 32.22 32.2 33.37C32.33 34.22 32.57 35.04 32.57 35.92C32.57 36.82 32.49 37.7 32.23 38.57C32.1 38.99 32.07 39.45 32 39.89C31.96 40.09 31.98 40.34 31.86 40.48C31.44 40.99 31.25 41.64 30.87 42.16C30.42 42.76 30.01 43.4 29.42 43.89C28.89 44.33 28.42 44.84 27.79 45.14C27 45.53 26.78 45.49 26.14 44.89C25.06 43.88 24 42.85 22.9 41.86C22.23 41.27 21.52 40.72 20.94 40.04C20.36 39.36 19.83 38.65 19.32 37.92C18.85 37.23 18.62 36.53 18.47 35.74C18.33 35 18.1 34.28 17.87 33.55C17.69 32.95 17.6 32.88 16.99 32.46C16.57 32.56 16.39 32.89 16.33 33.28C16.19 34.24 16.12 35.22 16.35 36.16C16.51 36.81 16.85 37.45 17.23 38.01C17.79 38.83 18.43 39.61 19.09 40.35C19.64 40.97 20.25 41.53 20.85 42.09C21.96 43.13 22.94 44.29 23.81 45.53C23.99 45.78 24.12 46.06 24.25 46.34C24.46 46.78 24.65 47.22 24.86 47.65C25.2 48.33 25.86 48.55 26.49 48.15C27.71 47.38 28.96 46.65 29.99 45.62C30.57 45.04 31.09 44.39 31.62 43.77C31.87 43.48 32.11 43.19 32.31 42.87C32.71 42.2 33.18 41.54 33.44 40.82C33.69 40.14 33.86 39.45 34.2 38.8C34.37 38.48 34.39 38.07 34.41 37.69C34.44 36.56 34.43 35.42 34.45 34.28C34.45 33.98 34.36 33.65 34.73 33.42C34.83 33.47 34.96 33.52 35.06 33.6C35.51 33.97 35.94 34.36 36.4 34.72C36.64 34.9 36.93 35.04 37.2 35.18C37.41 35.29 37.67 35.34 37.85 35.48C38.52 36 39.29 36.12 40.1 36.11C40.58 36.1 41.06 36.11 41.55 36.11C42.35 36.11 43.08 35.9 43.83 35.58C45.65 34.82 47.11 33.58 48.56 32.3C49.77 31.23 50.98 30.16 52.19 29.08C53.01 28.34 53.82 27.6 54.63 26.86C54.71 26.79 54.78 26.71 54.86 26.65C56.38 25.48 57.89 24.27 59.46 23.16C60.3 22.57 61.15 21.99 62.02 21.44C62.71 21 63.44 20.63 64.15 20.2C64.82 19.79 65.49 19.38 66.13 18.93C66.48 18.68 66.84 18.51 67.26 18.44C67.63 18.38 67.99 18.26 68.36 18.2C69.48 18.03 70.57 17.66 71.72 17.7C72.23 17.72 72.75 17.78 73.26 17.87C74.41 18.08 75.55 18.32 76.7 18.54C76.87 18.57 77.06 18.57 77.21 18.65C78.22 19.17 79.35 19.37 80.35 19.93C81.26 20.45 82.17 20.5 83.04 19.78C83.56 19.34 84.21 19.07 84.65 18.51C85.27 17.73 85.98 17.01 86.26 16.02C86.27 15.99 86.28 15.95 86.3 15.92C87.32 14.31 87.05 12.55 86.91 10.8C86.89 10.57 86.81 10.32 86.7 10.11C86.19 9.09 85.65 8.08 84.9 7.23C84.31 6.57 83.55 6.06 82.72 5.7C82.38 5.54 82 5.45 81.67 5.27C81.08 4.95 80.45 4.82 79.78 4.82C78.85 4.82 77.92 4.82 76.99 4.82C76.18 4.82 75.43 5.04 74.67 5.27C74.04 5.46 73.4 5.62 72.77 5.78C72.65 5.81 72.51 5.77 72.3 5.76C72.38 5.55 72.39 5.37 72.48 5.25C73.28 4.25 74.23 3.41 75.26 2.65C75.84 2.21 76.44 1.82 77.18 1.7C77.28 1.68 77.37 1.63 77.46 1.57C78.2 1.05 79.07 1.03 79.92 0.91C81.27 0.72 82.6 0.92 83.94 1.03C84.42 1.07 84.89 1.17 85.29 1.49C85.39 1.57 85.52 1.65 85.64 1.69C86.9 2.08 87.87 2.92 88.84 3.72C89.88 4.58 90.8 5.59 91.45 6.77C91.91 7.6 92.47 8.41 92.69 9.37C92.73 9.5 92.76 9.65 92.83 9.76C93.52 10.75 93.53 11.91 93.59 13.04C93.66 14.41 93.68 15.79 93.51 17.17C93.44 17.8 93.27 18.38 92.95 18.92C92.68 19.36 92.49 19.85 92.2 20.27C91.58 21.15 90.82 21.89 89.9 22.47C89.38 22.8 88.91 23.19 88.31 23.41C87.8 23.59 87.36 23.95 86.9 24.25C86.56 24.48 86.47 24.92 86.7 25.37C86.99 25.91 87.29 26.46 87.66 26.95C87.96 27.34 88.21 27.74 88.35 28.21C88.37 28.31 88.41 28.41 88.46 28.5C89.12 29.56 89.07 30.74 89.02 31.91C89.02 31.94 89.02 31.98 89.01 32.01C88.63 33.29 88.34 34.61 87.68 35.79C87.61 35.91 87.49 36.01 87.46 36.14C87.22 37.11 86.53 37.81 85.99 38.6C85.58 39.19 85.21 39.81 84.81 40.41C84.02 41.58 83.22 42.74 82.44 43.91C82.31 44.11 82.22 44.34 82.11 44.55C82 44.76 81.93 45.01 81.77 45.18C81.45 45.52 81.33 45.95 81.11 46.33C80.65 47.14 80.29 47.98 80.1 48.9C79.46 49.84 79.43 50.9 79.44 51.98C79.44 52.15 79.45 52.33 79.44 52.5C79.28 54.04 79.94 55.31 80.84 56.48C81.43 57.25 82.09 57.95 82.66 58.73C83.22 59.5 83.76 60.3 83.89 61.31C83.95 61.78 84.11 62.24 84.29 62.68C84.47 63.11 84.6 63.53 84.61 63.98C84.65 65.15 84.69 66.32 84.7 67.49C84.71 68.05 84.56 68.58 84.22 69.04C83.98 69.38 83.82 69.77 83.6 70.12C82.58 71.73 81.37 73.17 80 74.49C79.63 74.85 79.22 75.16 78.71 75.16C77.16 75.14 75.7 75.34 74.15 75.36C73.05 75.38 71.8 75.34 70.71 75.42C70.34 75.45 69.99 75.42 69.63 75.53C68.95 75.75 68.7 75.46 68.61 74.75C68.56 74.27 68.64 73.9 69.08 73.58C69.46 73.3 69.76 72.91 70.26 72.78C70.38 72.75 70.49 72.64 70.61 72.57C70.67 72.53 70.71 72.47 70.77 72.44C72.07 71.84 73.31 71.04 74.83 71.13C75.04 71.15 75.25 71.14 75.45 71.13C75.89 71.11 76.21 70.9 76.5 70.56C77.13 69.81 77.55 68.94 77.97 68.08C78.34 67.31 78.29 66.47 78.13 65.64C78.03 65.13 77.66 64.91 77.14 64.94C76.61 64.98 76.13 65.18 75.7 65.48C75.2 65.84 74.7 66.2 74.24 66.61C73.9 66.9 73.54 67.03 73.11 67.03C72.49 67.02 71.87 67.03 71.25 67.03C69.18 67.03 67.35 66.34 65.04 67.02C64.73 67.02 64.42 67 64.12 66.96C63.9 66.93 63.81 66.66 63.92 66.47C63.96 66.41 63.99 66.35 64.04 66.3C64.58 65.73 65.13 65.16 65.67 64.58C65.91 64.31 66.19 64.16 66.56 64.14C68.02 64.07 69.39 63.59 70.79 63.21C71.17 63.11 71.46 62.88 71.75 62.63C72.94 61.6 73.02 61.44 73.03 59.89C73.03 59.79 73.02 59.68 73.04 59.58C73.21 58.24 72.68 57.14 71.81 56.2C71.3 55.65 70.66 55.22 70.05 54.77C68.98 53.97 67.84 53.26 66.81 52.4C66.4 52.06 66.06 51.72 65.81 51.24C65.61 50.85 65.31 50.5 64.99 50.19C64.54 49.76 64.11 49.79 63.76 50.28C62.56 51.97 61.06 53.42 60.01 55.21C59.55 55.98 58.9 56.61 58.26 57.24C57.11 58.37 55.98 59.53 54.7 60.52C53.74 61.26 52.72 61.89 51.67 62.47C51.58 62.52 51.48 62.57 51.38 62.58C50.49 62.64 49.86 63.23 49.27 63.78C48.65 64.36 48.1 65.04 47.86 65.9C47.71 66.39 47.51 66.87 47.37 67.37C47.25 67.76 47.17 68.17 47.1 68.57C47.02 69.05 47.01 69.53 46.92 70.01C46.88 70.27 46.81 70.57 46.65 70.78C46.28 71.3 46.13 71.89 46.03 72.51C45.93 73.17 45.66 73.76 45.28 74.3C45.03 74.66 44.74 74.9 44.31 75.02C43.88 75.14 43.46 75.31 43.07 75.52C42.7 75.73 42.3 75.81 41.89 75.86C40.7 76.02 39.48 76.08 38.31 76.36C37.06 76.66 35.79 76.66 34.53 76.81C33.95 76.88 33.38 77.03 32.83 77.23C32.3 77.42 31.78 77.57 31.23 77.58C30.32 77.61 29.45 77.79 28.61 78.12C28.06 78.34 27.49 78.46 26.89 78.48C26.24 78.5 25.6 78.65 24.99 78.92C24.42 79.17 23.82 79.32 23.19 79.33C21.63 79.35 20.11 79.68 18.59 80C18.19 80.08 17.78 80.16 17.37 80.19C16.31 80.26 15.24 80.32 14.17 80.35C13.6 80.36 13.07 80.47 12.58 80.73C11.93 81.08 11.46 80.62 11.45 80.03C11.44 79.45 11.44 78.86 11.45 78.27C11.45 77.99 11.52 77.7 11.76 77.54C12.32 77.15 12.74 76.56 13.45 76.38C13.64 76.33 13.85 76.25 14 76.12C14.43 75.74 14.93 75.54 15.48 75.42C15.61 75.39 15.76 75.34 15.86 75.26C16.46 74.79 17.18 74.72 17.9 74.61C18.51 74.52 19.12 74.4 19.71 74.21C20.44 73.98 21.17 73.83 21.93 73.77C22.73 73.72 23.5 73.54 24.26 73.3C24.81 73.12 25.4 73.04 25.96 72.9C26.36 72.79 26.77 72.71 27.13 72.53C27.57 72.31 28.01 72.12 28.5 72.08C29.2 72.01 29.63 71.63 29.86 70.99C29.93 70.8 30.01 70.61 30.09 70.41Z" />
</svg>
