<svg xmlns="http://www.w3.org/2000/svg" viewBox="0 0 96 78" width="96" height="78">
	<style>
		tspan { white-space:pre }
		.shp0 { fill: white }
	</style>
	<g id="Layer">
		<g id="Layer">
			<g id="Layer">
				<path id="Layer" class="shp0" d="M31.6 18.4C31.6 19.7 32.6 20.7 33.9 20.7L62 20.7C63.3 20.7 64.3 19.7 64.3 18.4C64.3 17.1 63.3 16 62 16L34 16C32.7 16 31.6 17.1 31.6 18.4Z" />
				<path id="Layer" class="shp0" d="M62 28.8L34 28.8C32.7 28.8 31.7 29.8 31.7 31.1C31.7 32.4 32.7 33.4 34 33.4L62 33.4C63.3 33.4 64.3 32.4 64.3 31.1C64.3 29.8 63.3 28.8 62 28.8Z" />
				<path id="Layer" class="shp0" d="M62 41.6L34 41.6C32.7 41.6 31.7 42.6 31.7 43.9C31.7 45.2 32.7 46.2 34 46.2L62 46.2C63.3 46.2 64.3 45.2 64.3 43.9C64.3 42.6 63.3 41.6 62 41.6Z" />
				<path id="Layer" fill-rule="evenodd" class="shp0" d="M95.4 11.8L95.4 21.4C95.4 22.7 94.4 23.7 93.1 23.7L77.7 23.7L77.7 66.2C77.7 72.4 72.7 77.4 66.5 77.4L14.6 77.4C6.8 77.4 0.5 71.1 0.5 63.3L0.5 57.4C0.5 56.1 1.5 55.1 2.8 55.1L18.3 55.1L18.3 14.7C18.3 6.9 24.6 0.6 32.4 0.6C32.4 0.6 79.2 0.6 84.3 0.6C90.5 0.6 95.5 5.6 95.4 11.8ZM14.6 72.7L57.4 72.7C56.1 70.9 55.3 68.6 55.3 66.2L55.3 59.8L5.1 59.8L5.1 63.3C5.1 68.6 9.4 72.8 14.6 72.8L14.6 72.7ZM75.3 5.2L32.4 5.2C27.1 5.2 22.9 9.5 22.9 14.7L22.9 55.2L57.8 55.2C59.1 55.2 60.1 56.2 60.1 57.5L60.1 66.3C60.1 69.9 63 72.8 66.6 72.8C70.2 72.8 73.1 69.9 73.1 66.3L73.1 11.8C73.1 9.3 73.9 7.1 75.3 5.2ZM90.8 11.8C90.8 8.2 87.9 5.3 84.3 5.3C80.7 5.3 77.8 8.2 77.8 11.8L77.8 19L90.8 19L90.8 11.8Z" />
			</g>
		</g>
	</g>
</svg>
