<svg xmlns="http://www.w3.org/2000/svg" viewBox="0 0 13 12" width="13" height="12">
	<style>
		tspan { white-space:pre }
		.shp0 { fill:  #DB2777 }
	</style>
	<g id="Layer">
		<path id="Layer" fill-rule="evenodd" class="shp0" d="M7.19 0.76C7.31 0.76 7.42 0.78 7.54 0.82C7.65 0.86 7.75 0.91 7.85 0.97C7.95 1.04 8.04 1.12 8.11 1.21C8.19 1.3 8.25 1.4 8.3 1.51C8.31 1.52 8.32 1.54 8.33 1.56C8.34 1.57 8.36 1.58 8.38 1.59C8.39 1.6 8.41 1.61 8.43 1.62C8.45 1.62 8.47 1.63 8.49 1.63L11.88 1.63C11.93 1.63 11.97 1.64 12.02 1.66C12.06 1.68 12.09 1.71 12.12 1.75C12.15 1.79 12.16 1.84 12.17 1.88C12.17 1.93 12.17 1.98 12.15 2.02C12.04 2.3 11.89 2.57 11.71 2.82C11.54 3.07 11.33 3.29 11.09 3.48C10.86 3.68 10.6 3.84 10.32 3.97C10.05 4.1 9.75 4.19 9.46 4.25C9.38 4.26 9.31 4.29 9.24 4.32C9.18 4.35 9.11 4.39 9.06 4.44C9 4.49 8.95 4.54 8.91 4.6C8.86 4.66 8.83 4.73 8.8 4.8C8.78 4.85 8.77 4.9 8.75 4.95C8.74 5 8.72 5.05 8.71 5.1C8.7 5.15 8.69 5.2 8.68 5.25C8.67 5.3 8.66 5.36 8.66 5.41C8.66 5.43 8.66 5.45 8.66 5.47C8.66 5.49 8.67 5.51 8.67 5.52C8.68 5.54 8.69 5.56 8.7 5.58C8.71 5.59 8.72 5.61 8.74 5.62C8.78 5.66 8.83 5.7 8.88 5.74C8.92 5.78 8.97 5.82 9.02 5.85C9.07 5.89 9.12 5.92 9.17 5.95C9.22 5.98 9.27 6.01 9.33 6.04C9.35 6.05 9.37 6.06 9.39 6.07C9.41 6.08 9.44 6.09 9.46 6.09C9.48 6.1 9.5 6.1 9.53 6.1C9.55 6.11 9.58 6.11 9.6 6.11L10.14 6.11C10.21 6.12 10.28 6.15 10.34 6.18C10.4 6.22 10.46 6.26 10.5 6.32C10.55 6.37 10.58 6.44 10.6 6.5C10.63 6.57 10.64 6.64 10.63 6.71C10.62 6.75 10.61 6.78 10.59 6.8C10.57 6.83 10.54 6.85 10.51 6.87C10.48 6.89 10.45 6.9 10.42 6.91C10.38 6.92 10.35 6.92 10.32 6.91C10.3 6.91 10.28 6.9 10.26 6.88C10.24 6.87 10.22 6.86 10.21 6.85C10.19 6.83 10.18 6.82 10.16 6.8C10.15 6.79 10.13 6.77 10.12 6.75C10.1 6.72 10.07 6.7 10.04 6.68C10.01 6.65 9.97 6.64 9.93 6.63C9.9 6.63 9.86 6.63 9.82 6.64C9.78 6.65 9.75 6.66 9.72 6.68C9.68 6.71 9.65 6.73 9.61 6.75C9.58 6.77 9.54 6.79 9.51 6.81C9.47 6.83 9.44 6.85 9.4 6.86C9.36 6.88 9.32 6.89 9.29 6.91C9.27 6.91 9.25 6.93 9.24 6.94C9.23 6.96 9.22 6.97 9.22 6.99C9.22 7.01 9.22 7.03 9.23 7.05C9.24 7.07 9.25 7.08 9.26 7.09C9.28 7.1 9.29 7.1 9.3 7.11C9.31 7.12 9.32 7.12 9.33 7.13C9.34 7.14 9.35 7.14 9.36 7.15C9.38 7.15 9.39 7.16 9.4 7.17C9.42 7.18 9.44 7.18 9.46 7.19C9.48 7.2 9.5 7.2 9.52 7.21C9.54 7.21 9.56 7.22 9.58 7.22C9.61 7.22 9.63 7.22 9.65 7.22L9.86 7.22C9.93 7.24 10 7.26 10.06 7.3C10.12 7.33 10.17 7.38 10.22 7.43C10.26 7.49 10.3 7.55 10.32 7.62C10.34 7.69 10.35 7.76 10.35 7.83C10.34 7.86 10.32 7.89 10.3 7.92C10.28 7.95 10.26 7.97 10.23 7.99C10.2 8.01 10.17 8.02 10.13 8.03C10.1 8.03 10.07 8.03 10.03 8.03C10.01 8.02 9.98 8.01 9.96 7.99C9.94 7.97 9.92 7.96 9.9 7.94C9.88 7.92 9.86 7.9 9.84 7.88C9.83 7.85 9.81 7.83 9.8 7.81C9.8 7.8 9.79 7.79 9.78 7.78C9.77 7.77 9.77 7.76 9.76 7.76C9.75 7.75 9.74 7.75 9.73 7.75C9.72 7.74 9.71 7.74 9.7 7.74L8.81 7.74C8.73 7.73 8.65 7.72 8.58 7.7C8.5 7.68 8.43 7.66 8.35 7.64C8.28 7.61 8.21 7.59 8.14 7.56C8.07 7.53 8 7.49 7.93 7.45C7.89 7.43 7.84 7.42 7.8 7.42C7.75 7.42 7.71 7.43 7.66 7.45C7.62 7.47 7.59 7.5 7.56 7.54C7.53 7.57 7.51 7.62 7.51 7.66C7.47 7.86 7.42 8.05 7.35 8.24C7.28 8.42 7.2 8.6 7.09 8.77C6.99 8.94 6.87 9.1 6.73 9.24C6.6 9.39 6.45 9.52 6.29 9.64C6.28 9.64 6.27 9.65 6.26 9.67C6.26 9.68 6.26 9.69 6.26 9.7C6.27 9.71 6.28 9.72 6.28 9.73C6.29 9.74 6.31 9.74 6.32 9.74L6.37 9.74C6.47 9.74 6.56 9.76 6.66 9.79C6.75 9.81 6.84 9.86 6.92 9.91C7 9.97 7.07 10.04 7.13 10.11C7.19 10.19 7.24 10.28 7.27 10.37C7.28 10.38 7.28 10.4 7.28 10.42C7.28 10.44 7.27 10.45 7.26 10.47C7.25 10.48 7.24 10.49 7.22 10.5C7.21 10.51 7.19 10.51 7.17 10.51L3.85 10.51C3.69 10.51 3.54 10.5 3.4 10.46C3.25 10.43 3.11 10.38 2.97 10.32C2.84 10.25 2.71 10.17 2.59 10.08C2.47 9.98 2.37 9.88 2.27 9.76C2.26 9.74 2.24 9.73 2.22 9.71C2.19 9.7 2.17 9.69 2.15 9.69C2.12 9.68 2.1 9.69 2.07 9.69C2.05 9.69 2.03 9.7 2 9.72C1.95 9.75 1.89 9.79 1.84 9.84C1.79 9.88 1.74 9.93 1.69 9.98C1.64 10.03 1.6 10.08 1.56 10.14C1.52 10.2 1.49 10.26 1.45 10.32C1.42 10.38 1.4 10.44 1.39 10.51C1.39 10.57 1.39 10.64 1.4 10.7C1.42 10.77 1.44 10.83 1.48 10.89C1.51 10.94 1.55 10.99 1.61 11.03C1.68 11.1 1.76 11.15 1.85 11.2C1.93 11.25 2.02 11.3 2.11 11.34C2.2 11.38 2.29 11.41 2.38 11.44C2.48 11.46 2.57 11.48 2.67 11.5C2.77 11.53 2.88 11.55 2.99 11.57C3.1 11.59 3.2 11.61 3.31 11.62C3.42 11.64 3.53 11.65 3.64 11.66C3.74 11.67 3.85 11.68 3.96 11.68L6.03 11.68C6.07 11.68 6.1 11.7 6.12 11.72C6.15 11.75 6.16 11.78 6.16 11.81C6.16 11.85 6.15 11.88 6.12 11.91C6.1 11.93 6.07 11.94 6.03 11.95L3.96 11.95C3.8 11.94 3.64 11.93 3.48 11.92C3.31 11.91 3.15 11.9 2.99 11.88C2.83 11.86 2.67 11.85 2.5 11.83C2.34 11.81 2.18 11.78 2.02 11.76C1.93 11.76 1.84 11.75 1.74 11.74C1.65 11.72 1.56 11.7 1.48 11.67C1.39 11.64 1.3 11.61 1.22 11.57C1.14 11.52 1.06 11.47 0.99 11.42C0.86 11.32 0.76 11.21 0.68 11.07C0.6 10.93 0.56 10.78 0.54 10.63C0.52 10.47 0.53 10.32 0.58 10.17C0.62 10.02 0.69 9.88 0.79 9.76C0.88 9.66 0.95 9.56 1.03 9.46C1.11 9.36 1.18 9.26 1.26 9.15C1.33 9.05 1.4 8.94 1.47 8.84C1.54 8.73 1.61 8.63 1.68 8.52C1.68 8.51 1.69 8.5 1.69 8.48C1.7 8.47 1.7 8.46 1.7 8.45C1.71 8.44 1.71 8.42 1.71 8.41C1.71 8.4 1.71 8.39 1.71 8.38C1.68 8.2 1.66 8.02 1.66 7.84C1.65 7.65 1.66 7.47 1.69 7.29C1.71 7.11 1.75 6.94 1.8 6.76C1.85 6.59 1.92 6.42 1.99 6.25C2.12 5.95 2.28 5.66 2.47 5.4C2.66 5.13 2.88 4.88 3.12 4.66C3.37 4.45 3.64 4.26 3.92 4.1C4.21 3.94 4.52 3.82 4.83 3.73C4.95 3.7 5.07 3.67 5.19 3.64C5.31 3.61 5.43 3.58 5.55 3.54C5.67 3.5 5.79 3.46 5.9 3.42C6.02 3.38 6.13 3.33 6.25 3.29C6.28 3.27 6.31 3.25 6.33 3.23C6.35 3.2 6.36 3.17 6.37 3.13C6.38 3.1 6.37 3.07 6.36 3.03C6.35 3 6.33 2.97 6.31 2.95C6.22 2.86 6.14 2.77 6.08 2.66C6.02 2.56 5.97 2.44 5.93 2.32C5.9 2.2 5.88 2.08 5.88 1.96C5.88 1.83 5.9 1.71 5.93 1.59C5.94 1.58 5.94 1.58 5.94 1.57C5.94 1.56 5.94 1.56 5.95 1.55C5.95 1.54 5.95 1.53 5.96 1.53C5.96 1.52 5.96 1.51 5.96 1.51C6.02 1.39 6.09 1.28 6.17 1.19C6.25 1.09 6.35 1.01 6.46 0.94C6.57 0.88 6.69 0.83 6.81 0.79C6.94 0.76 7.06 0.75 7.19 0.76L7.19 0.76ZM9.98 2.21C9.95 2.21 9.93 2.22 9.9 2.23C9.87 2.24 9.85 2.26 9.83 2.28C9.81 2.3 9.8 2.32 9.79 2.35C9.78 2.38 9.77 2.4 9.77 2.43C9.77 2.49 9.79 2.54 9.83 2.59C9.87 2.63 9.92 2.65 9.98 2.65C10.04 2.65 10.09 2.63 10.13 2.59C10.17 2.54 10.19 2.49 10.19 2.43C10.19 2.4 10.19 2.38 10.18 2.35C10.17 2.32 10.15 2.3 10.13 2.28C10.11 2.26 10.09 2.24 10.06 2.23C10.04 2.22 10.01 2.22 9.98 2.21Z" />
	</g>
</svg>
